# xmcd
#
# Track frame offsets:
#	150
#	12407
#	26899
#	41173
#	53628
#	66524
#	78142
#	91013
#	103253
#	114619
#	126414
#	139509
#	152489
#	165037
#	178116
#	189984
#	202330
#	215116
#	227171
#	239737
#	252038
#	264786
#	278437
#	290770
#	303797
#	316662
#	329737
#	342489
#
# Disc length: 4728 seconds
#
# Revision: 2
# Processed by: cddbd v1.5.2PL0 Copyright (c) Steve Scherf et al.
# Submitted via: audiograbber 1.83.01
#
DISCID=9712761c
DTITLE=Various Artist - Country and Western Hit Parade 1946
DYEAR=2008
DGENRE=Country
TTITLE0=The Buchanan Brothers - Atomic Power
TTITLE1=Ernest Tubb - Rainbow At Midnight
TTITLE2=Eddy Arnold and His Tennessee Plowboys - That's How Much I Love You
TTITLE3=Cowboy 'Pappy' Copas - Filipino Baby
TTITLE4=Al Dexter and His Troopers - Wine, Women, And Song
TTITLE5=Bob Wills and His Texas Playboys - New Spanish Two Step
TTITLE6=Elton Britt and The Skytoppers - Someday
TTITLE7=Merle Travis - No Vacancy
TTITLE8=Roy Acuff and His Smoky Mountain Boys - No One Will Ever Know
TTITLE9=Brad Brady (Owen Bradley) and His Tennesseans - Zeb's Mountain Boogie
TTITLE10=Gene Autry - I Wish I Had Never Met Sunshine
TTITLE11=Cowboy Copas - Tragic Romance
TTITLE12=Delmore Brothers - Hillbilly Boogie
TTITLE13=The Bailes Brothers - As Long As I Live
TTITLE14=Bill Monroe and His Blue Grass Boys - Rocky Road Blues
TTITLE15=Grandpa Jones - Eight More Miles To Louisville
TTITLE16=Merle Travis - Dark As A Dungeon
TTITLE17=The Morris Brothers - Salty Dog Blues
TTITLE18=Harry Choates and His Fiddle - Jole Blon (Pretty Blond)
TTITLE19=Cousin Emmy and her Kinfolk - Ruby
TTITLE20=Bill Monroe and His Blue Grass Boys - Kentucky Waltz
TTITLE21=Delmore Brothers - Midnite Special
TTITLE22=Floyd Tillman - Some Other World
TTITLE23=Hank Penny - Steel Guitar Stomp
TTITLE24=T. Texas Tyler 'The Man With A Million Friends' - Black Jack David
TTITLE25=Tex Ritter - You Will Have To Pay
TTITLE26=Bob Wills and His Texas Playboys - Stay A Little Longer
TTITLE27=Spade Cooley and His Orchestra - Three Way Boogie
EXTD=
EXTT0=
EXTT1=
EXTT2=
EXTT3=
EXTT4=
EXTT5=
EXTT6=
EXTT7=
EXTT8=
EXTT9=
EXTT10=
EXTT11=
EXTT12=
EXTT13=
EXTT14=
EXTT15=
EXTT16=
EXTT17=
EXTT18=
EXTT19=
EXTT20=
EXTT21=
EXTT22=
EXTT23=
EXTT24=
EXTT25=
EXTT26=
EXTT27=
PLAYORDER=
